<svg xmlns="http://www.w3.org/2000/svg" viewBox="0 0 4774.27 1409.02"><defs><style>.cls-1{fill:#fff;}.cls-2{fill:#f37423;}.cls-3{fill:#999;}.cls-4{fill:#f37321;}.cls-5{fill:#2868b2;}.cls-6{fill:#2867b2;}</style></defs><title>Asset 2</title><g id="Layer_2" data-name="Layer 2"><g id="Layer_1-2" data-name="Layer 1"><circle class="cls-1" cx="589.88" cy="589.88" r="589.88"/><path class="cls-2" d="M1162.1,446.11a505.2,505.2,0,0,1,7,84.18c0,277.51-225,502.47-502.48,502.47s-502.47-225-502.47-502.47,225-502.48,502.47-502.48a500.58,500.58,0,0,1,203.8,43.05A587.22,587.22,0,0,0,589.88,0C264.1,0,0,264.1,0,589.88s264.1,589.88,589.88,589.88,589.88-264.1,589.88-589.88A591,591,0,0,0,1162.1,446.11Z"/><path class="cls-3" d="M668.35,65.24c-234.94,0-430,167.16-467.77,386.57C252.79,260.54,431.12,119.66,643,119.66c252.86,0,457.94,200.6,457.94,448,0,140.16-65.83,265.29-168.86,347.44,127-83.27,210.62-225,210.62-385.77C1142.73,273,930.3,65.24,668.35,65.24Z"/><path class="cls-4" d="M577.92,845.55c0,49.8-41.28,90.19-92.2,90.19s-92.19-40.39-92.19-90.19,41.29-90.21,92.19-90.21S577.92,795.73,577.92,845.55Z"/><path class="cls-5" d="M2547.25,1069.1V692.91q0-69,34.88-126.66T2678,474.1q61-34.49,135.76-37,51.42,0,113.24,27t106,87.14q44.22,60.18,44.23,151.73V1069.1h-113V705.55a167,167,0,0,0-18.81-77.72,151.61,151.61,0,0,0-53.31-58.61q-34.5-22.25-78.38-24.12a145.34,145.34,0,0,0-75.56,20.68,151.93,151.93,0,0,0-54.87,55.47,146.26,146.26,0,0,0-20.07,74.28V1069.1Z"/><path class="cls-5" d="M3288.82,778.94c2.56,152.78,100.14,215.69,213.12,215.69,80.88,0,129.67-14.12,172-32.09l19.26,80.88c-39.8,18-107.84,38.52-206.7,38.52-191.29,0-305.56-125.82-305.56-313.27s110.41-335.08,291.44-335.08c202.85,0,256.77,178.45,256.77,292.72,0,23.11-2.57,41.08-3.85,52.63Zm331.23-80.88c1.29-71.89-29.53-183.59-156.63-183.59-114.26,0-164.33,105.28-173.32,183.59Z"/><path class="cls-5" d="M4612.46,269.25V447.71h161.77v86H4612.46V868.82c0,77,21.83,120.68,84.73,120.68,29.53,0,51.36-3.85,65.48-7.71l5.14,84.74c-21.83,9-56.49,15.41-100.14,15.41-52.64,0-95-16.7-122-47.51-32.1-33.38-43.65-88.58-43.65-161.76V533.73h-96.29v-86H4502v-149Z"/><path class="cls-4" d="M1268.79,1072.38V648.87Q1270,595.62,1298.53,548t81.06-76.11q52.58-28.5,120.19-28.52,61.34,1.9,102,27.41t67,60.8q26.34-38.45,74.31-63.31t112-24.9a219,219,0,0,1,186.25,103.38q29.47,47.63,29.48,102.11v423.51h-113V683.79A177.59,177.59,0,0,0,1947.46,624q-10.34-29.12-35.37-50.06t-64.47-21.6q-65.11,0-93,38.49t-27.86,92.92v388.59h-116V691.93q0-40.66-12.51-72.89T1560.1,569.6q-25.63-17.21-63.18-17.22-68.84,1.88-92,42.24t-23.14,104.81v373Z"/><path class="cls-4" d="M2244.56,315.2a69.35,69.35,0,0,1,21.65-46.69Q2286,249.39,2313,249.38t46.75,19.75q19.78,19.74,19.78,48.57,0,20.69-8.48,36a58,58,0,0,1-23.53,23.5,66.28,66.28,0,0,1-32,8.14q-28.87,0-49.91-19.42T2244.56,315.2Zm10.65,757.18v-616h113v616Z"/><path class="cls-6" d="M2275.77,1237.41l-40,169.19h-34.54l-14.52-71.73c-3.74-17.59-6.38-34.76-8.58-53.9h-.44c-2.86,19.14-5.94,36.09-10.12,53.9L2151,1406.6h-34.32l-37.18-169.19H2114l13,73c3.52,20.25,6.82,41.15,9.24,59.19h.66c2.42-18.92,6.6-38.5,11-59.62l15.4-72.61h32.12l14.3,73.49c3.74,19.8,7,38.5,9.24,58.3h.66c2.64-20,5.94-39.17,9.46-59.41l13.86-72.38Z"/><path class="cls-6" d="M2386,1401.76c-10.12,4.4-24.42,7-39.6,7-37.84,0-59.4-23.77-59.4-61.82,0-35.2,20.24-65.57,56.1-65.57,29.7,0,49.06,21.12,49.06,60.73a75.43,75.43,0,0,1-.88,13H2318c.88,20.91,15.84,29.27,33.44,29.27a89.38,89.38,0,0,0,29.92-5.06Zm-24-69.31c.22-12.75-4.84-28.38-20.9-28.38-15.62,0-22.22,16.29-23.1,28.38Z"/><path class="cls-6" d="M2572.1,1402.42c-6.38,3.08-20,6.38-37.4,6.38-50.82,0-79-34.54-79-84.7,0-59.19,38.06-89.11,82.94-89.11,18.26,0,30.14,3.74,35,6.38l-6.38,26.41a66.42,66.42,0,0,0-27.06-5.51c-27.94,0-50.38,19.14-50.38,60.06,0,38.28,19.58,58.74,50.16,58.74,10.12,0,20.9-2,27.5-4.83Z"/><path class="cls-6" d="M2661,1313.09a47.77,47.77,0,0,0-8.36-.65c-14.74,0-26,9.89-26,30.8v63.36H2594.1v-84.27c0-15.17-.44-27.28-.88-38.28h27.94l1.32,21.35h.88c5.72-15.85,18.92-24,30.36-24a34,34,0,0,1,7.26.66Z"/><path class="cls-6" d="M2771.42,1401.76c-10.12,4.4-24.42,7-39.6,7-37.84,0-59.4-23.77-59.4-61.82,0-35.2,20.24-65.57,56.1-65.57,29.7,0,49.06,21.12,49.06,60.73a75.43,75.43,0,0,1-.88,13h-73.26c.88,20.91,15.84,29.27,33.44,29.27a89.38,89.38,0,0,0,29.92-5.06Zm-24-69.31c.22-12.75-4.84-28.38-20.9-28.38-15.62,0-22.22,16.29-23.1,28.38Z"/><path class="cls-6" d="M2891.76,1377.56c0,10.78.44,21.55,1.76,29h-29.26l-2-12.76h-.66c-7,9.68-18.92,15.18-32.56,15.18-22.66,0-36.74-17-36.74-36.74,0-31.46,27.94-46.21,66.88-46.21,0-12.09-4.18-21.33-22-21.33a59.78,59.78,0,0,0-30.14,8.35l-6.14-21c8.14-4.84,23.32-10.34,42.46-10.34,38.06,0,48.4,24.2,48.4,51ZM2860.08,1347c-17.6,0-35.86,4.18-35.86,22,0,11.66,7.26,16.72,15.4,16.72,7.7,0,20.46-5.5,20.46-21.13Z"/><path class="cls-6" d="M2926.08,1261.61l32.12-9.45v31.89h27.06v24H2958.2v53.25c0,14.74,4.62,20.9,14.52,20.9a46.33,46.33,0,0,0,10.56-1.11l.44,24.87c-4.4,1.76-12.32,2.86-21.78,2.86-35.2,0-35.86-30.58-35.86-44.23V1308H2910v-24h16.06Z"/><path class="cls-6" d="M3097.9,1401.76c-10.12,4.4-24.42,7-39.6,7-37.84,0-59.4-23.77-59.4-61.82,0-35.2,20.24-65.57,56.1-65.57,29.7,0,49.06,21.12,49.06,60.73a75.43,75.43,0,0,1-.88,13h-73.26c.88,20.91,15.84,29.27,33.44,29.27a89.38,89.38,0,0,0,29.92-5.06Zm-24-69.31c.22-12.75-4.84-28.38-20.9-28.38-15.62,0-22.22,16.29-23.1,28.38Z"/><path class="cls-6" d="M3278.29,1265.57h-41.8v141h-32.56v-141h-41.58v-28.16h115.94Z"/><path class="cls-6" d="M3400.39,1406.6h-32.56V1336c0-15.62-4.84-27.73-18.92-27.73-8.14,0-20.68,5.73-20.68,24v74.36h-32.56V1229.71h32.56v69.08h.44a39.93,39.93,0,0,1,32.78-17.38c21.78,0,38.94,15.84,38.94,51.92Z"/><path class="cls-6" d="M3521.83,1401.76c-10.12,4.4-24.42,7-39.6,7-37.84,0-59.4-23.77-59.4-61.82,0-35.2,20.24-65.57,56.1-65.57,29.7,0,49.06,21.12,49.06,60.73a75.43,75.43,0,0,1-.88,13h-73.26c.88,20.91,15.84,29.27,33.44,29.27a89.38,89.38,0,0,0,29.92-5.06Zm-24-69.31c.22-12.75-4.84-28.38-20.9-28.38-15.62,0-22.22,16.29-23.1,28.38Z"/><path class="cls-6" d="M3723.12,1406.6h-32.56l-36.3-70c-9-17.39-18.92-38.28-26-56.77h-.88c1.32,20.91,2,44.66,2,74.81v51.92H3599.9V1237.41h35.2l35.64,68.64a540.54,540.54,0,0,1,25.3,55.23h.44c-2-21.56-2.86-45.54-2.86-73v-50.83h29.48Z"/><path class="cls-6" d="M3847,1401.76c-10.12,4.4-24.42,7-39.6,7-37.84,0-59.4-23.77-59.4-61.82,0-35.2,20.24-65.57,56.1-65.57,29.7,0,49.06,21.12,49.06,60.73a75.43,75.43,0,0,1-.88,13H3779c.88,20.91,15.84,29.27,33.44,29.27a89.38,89.38,0,0,0,29.92-5.06Zm-24-69.31c.22-12.75-4.84-28.38-20.9-28.38-15.62,0-22.22,16.29-23.1,28.38Z"/><path class="cls-6" d="M3975.46,1284.05l-36.52,59.19,37,63.36h-36.52l-12.1-23.76c-3.3-6.39-6.16-12.77-9.24-19.36h-.44c-2.86,6.59-5.94,13-9,19.36l-11.44,23.76h-34.76l37.18-62-36.3-60.51h36.08l11.66,22.23c3.52,6.81,6.38,13.2,9.46,19.36h.44c3.08-6.61,5.94-13.2,9-19.59l11-22Z"/><path class="cls-6" d="M3997.46,1261.61l32.12-9.45v31.89h27.06v24h-27.06v53.25c0,14.74,4.62,20.9,14.52,20.9a46.33,46.33,0,0,0,10.56-1.11l.44,24.87c-4.4,1.76-12.32,2.86-21.78,2.86-35.2,0-35.86-30.58-35.86-44.23V1308H3981.4v-24h16.06Z"/><path class="cls-6" d="M4249.14,1237.41l-51.49,169.19h-37.17l-49.07-169.19h35.65l19.13,74.8c5.07,20,10.13,40.27,13.65,60.73h.66c3.73-20.24,8.8-40.92,14.08-60.73l19.58-74.8Z"/><path class="cls-6" d="M4354.07,1377.56c0,10.78.44,21.55,1.76,29h-29.26l-2-12.76h-.66c-7,9.68-18.92,15.18-32.56,15.18-22.66,0-36.74-17-36.74-36.74,0-31.46,27.94-46.21,66.88-46.21,0-12.09-4.18-21.33-22-21.33a59.78,59.78,0,0,0-30.14,8.35l-6.16-21.12c8.14-4.84,23.32-10.34,42.46-10.34,38.06,0,48.4,24.2,48.4,51ZM4322.39,1347c-17.6,0-35.86,4.18-35.86,22,0,11.66,7.26,16.72,15.4,16.72,7.7,0,20.46-5.5,20.46-21.13Z"/><path class="cls-6" d="M4415.67,1406.6h-32.56V1229.71h32.56Z"/><path class="cls-6" d="M4548.33,1369.2c0,14.52.66,27.06,1.1,37.4h-28.38l-1.54-16.28h-.66c-5.06,7.92-16.28,18.7-35.2,18.7-23.32,0-39.16-15.18-39.16-51.92v-73h32.56v68.21c0,18.48,5.28,30.14,18.7,30.14,10.56,0,20-9,20-22.88V1284.1h32.56Z"/><path class="cls-6" d="M4670.21,1401.76c-10.12,4.4-24.42,7-39.6,7-37.84,0-59.4-23.77-59.4-61.82,0-35.2,20.24-65.57,56.1-65.57,29.7,0,49.06,21.12,49.06,60.73a75.43,75.43,0,0,1-.88,13h-73.26c.88,20.91,15.84,29.27,33.44,29.27a89.38,89.38,0,0,0,29.92-5.06Zm-24-69.31c.22-12.75-4.84-28.38-20.9-28.38-15.62,0-22.22,16.29-23.1,28.38Z"/><path class="cls-6" d="M4763.48,1311.11c-5.27-2.86-13.85-6.37-23.09-6.37-9.91,0-15.19,5-15.19,11.66s4.62,10.34,18.7,16.27c20.69,8.58,30.37,20.47,30.37,37.4,0,23.33-17.6,38.73-48.19,38.73-13.42,0-26.39-3.3-34.54-8.14l6.16-23.55c6.38,3.75,18.49,8.15,28.61,8.15,11.43,0,16.93-4.84,16.93-12.32s-4.17-11.45-17.59-17.16c-22.88-9.25-31.25-22.22-31.25-35.65,0-22,17.6-38.72,44.88-38.72,12.54,0,23.33,3.08,30.37,6.83Z"/><path class="cls-5" d="M3996.23,929.16c7.21-11.62,14.3-22.87,21.26-34H3902.92l-40.15,57.66H3981Z"/><polygon class="cls-5" points="3822.61 1010.52 3781.82 1069.1 3906.36 1069.1 3943.97 1010.52 3822.61 1010.52"/><path class="cls-5" d="M4132.32,748.13l211.83-300.42h-122L4134.88,580c-20.54,33.38-41.08,65.47-61.62,102.71h-3.85c-20.55-34.67-39.8-66.77-62.91-101.43l-88.59-133.52H3792.09L4002.65,752l-59.57,85.54h109.47q4.62-8,9.15-16.21h2.57c21.83,37.23,42.37,71.9,66.76,107.85l91.16,139.94h128.38Z"/></g></g></svg>